<svg xmlns="http://www.w3.org/2000/svg" viewBox="0 0 32 32">
  <defs>
    <linearGradient id="g" x1="0" y1="0" x2="1" y2="1">
      <stop offset="0%" stop-color="#3b82f6"/>
      <stop offset="100%" stop-color="#d946ef"/>
    </linearGradient>
  </defs>
  <rect width="32" height="32" rx="7" fill="url(#g)"/>
  <path d="M9 10a1 1 0 011-1h8a1 1 0 011 1v0a1 1 0 01-1 1H10a1 1 0 01-1-1z" fill="#fff" opacity=".8"/>
  <path d="M9 15a1 1 0 011-1h12a1 1 0 011 1v0a1 1 0 01-1 1H10a1 1 0 01-1-1z" fill="#fff" opacity=".6"/>
  <path d="M9 20a1 1 0 011-1h10a1 1 0 011 1v0a1 1 0 01-1 1H10a1 1 0 01-1-1z" fill="#fff" opacity=".6"/>
  <path d="M22 22.5l3-3m0 0l-3-3m3 3H15" stroke="#22d3ee" stroke-width="1.8" stroke-linecap="round" stroke-linejoin="round"/>
</svg>
